 <svg
          width="64"
          viewBox="0 0 203 114"
          fill="none"
          xmlns="http://www.w3.org/2000/svg"
        >
          <path
            d="M29.2342 36.8953C13.0894 36.8953 0 49.695 0 65.8547C0 88.1823 29.3182 100.03 29.2342 99.998C29.1543 100.03 58.4685 88.1823 58.4685 65.8547C58.4685 49.707 45.3791 36.8953 29.2342 36.8953ZM29.2342 77.5785C27.045 77.5769 24.9054 76.9261 23.0859 75.7084C21.2665 74.4906 19.8489 72.7607 19.0124 70.7372C18.1759 68.7137 17.958 66.4876 18.3864 64.3403C18.8148 62.193 19.8701 60.221 21.4189 58.6735C22.9678 57.1261 24.9406 56.0727 27.088 55.6466C29.2354 55.2205 31.4609 55.4408 33.4831 56.2796C35.5053 57.1184 37.2334 58.5382 38.449 60.3593C39.6645 62.1804 40.3128 64.3211 40.3121 66.5107C40.3147 67.9668 40.03 69.4091 39.4743 70.755C38.9186 72.1009 38.1029 73.324 37.0738 74.354C36.0447 75.384 34.8225 76.2008 33.4773 76.7575C32.132 77.3143 30.6901 77.6 29.2342 77.5985V77.5785Z"
            fill="#FF6F0F"
          ></path>
          <path
            d="M35.8169 0C28.9943 0 24.2432 4.76791 23.4953 10.3998C14.4011 7.88784 7.27454 14.7997 7.27454 22.3996C7.27454 28.2194 11.2737 32.9193 16.6047 34.4473C20.9038 35.6753 28.6463 34.7593 28.6463 34.7593C28.6063 32.8794 30.338 30.8154 33.0095 28.9354C40.608 23.5915 46.5508 21.0716 47.4666 13.7837C48.4264 6.15989 42.7675 0 35.8169 0Z"
            fill="#00A05B"
          ></path>
          <path
            d="M116.493 46.963C110.318 48.903 99.6284 49.935 89.5864 49.935V37.7192H110.326V28.6234H78.4646V59.5988C95.8892 59.5988 111.102 57.4989 117.525 55.5109L116.493 46.963Z"
            fill="#FF6F0F"
          ></path>
          <path
            d="M131.134 24.9995H120.028V60.6108H131.134V49.447H140.092V39.7312H131.134V24.9995Z"
            fill="#FF6F0F"
          ></path>
          <path
            d="M110.506 60.5268C98.7405 60.5268 90.1102 67.0107 90.1102 76.5265C90.1102 86.0423 98.7485 92.5262 110.506 92.5262C122.264 92.5262 130.902 86.0383 130.902 76.5265C130.902 67.0147 122.272 60.5268 110.506 60.5268ZM110.506 83.6184C105.203 83.6184 101.224 81.0744 101.224 76.5105C101.224 71.9466 105.203 69.4067 110.506 69.4067C115.809 69.4067 119.788 71.9506 119.788 76.5105C119.788 81.0704 115.813 83.6184 110.506 83.6184Z"
            fill="#FF6F0F"
          ></path>
          <path
            d="M161.72 65.2507H150.366V89.3422H195.494V79.8064H161.72V65.2507Z"
            fill="#FF6F0F"
          ></path>
          <path
            d="M194.086 27.9714H149.854V37.5073H182.936C182.936 39.8752 183.048 45.5071 181.964 51.907H141.396V61.7708H202.984V51.923H192.01C193.482 43.8351 193.902 37.5312 194.086 27.9714Z"
            fill="#FF6F0F"
          ></path>
        </svg>